<?xml version="1.0" encoding="UTF-8"?>
<svg width="10px" height="10px" viewBox="0 0 10 10" version="1.1" xmlns="http://www.w3.org/2000/svg" xmlns:xlink="http://www.w3.org/1999/xlink">
    <!-- Generator: Sketch 54.1 (76490) - https://sketchapp.com -->
    <title>Cross</title>
    <desc>Created with Sketch.</desc>
    <g id="Cross" stroke="none" stroke-width="1">
        <path d="M6.72306818,4.875 L9.49489347,2.10317472 C9.83503551,1.76303267 9.83503551,1.2115483 9.49489347,0.871129261 L8.87887074,0.255106534 C8.53872869,-0.0850355114 7.98724432,-0.0850355114 7.64682528,0.255106534 L4.875,3.02693182 L2.10317472,0.255106534 C1.76303267,-0.0850355114 1.2115483,-0.0850355114 0.871129261,0.255106534 L0.255106534,0.871129261 C-0.0850355114,1.21127131 -0.0850355114,1.76275568 0.255106534,2.10317472 L3.02693182,4.875 L0.255106534,7.64682528 C-0.0850355114,7.98696733 -0.0850355114,8.5384517 0.255106534,8.87887074 L0.871129261,9.49489347 C1.21127131,9.83503551 1.76303267,9.83503551 2.10317472,9.49489347 L4.875,6.72306818 L7.64682528,9.49489347 C7.98696733,9.83503551 8.53872869,9.83503551 8.87887074,9.49489347 L9.49489347,8.87887074 C9.83503551,8.53872869 9.83503551,7.98724432 9.49489347,7.64682528 L6.72306818,4.875 Z" id="Path"></path>
    </g>
</svg>