<?xml version="1.0" encoding="UTF-8"?>
<svg width="32px" height="32px" viewBox="0 0 32 32" version="1.1" xmlns="http://www.w3.org/2000/svg" xmlns:xlink="http://www.w3.org/1999/xlink">
    <!-- Generator: Sketch 54.1 (76490) - https://sketchapp.com -->
    <title>FishDish</title>
    <desc>Created with Sketch.</desc>
    <g id="FishDish" stroke="none" stroke-width="1" fill="none" fill-rule="evenodd">
        <path d="M30.4408097,3.90827412 C31.2673097,4.74036108 29.4910597,8.3207089 26.1137681,12.4275785 C24.3786014,12.2212306 22.6446431,11.4171437 21.2556639,10.0183611 C19.4872681,8.2367089 18.6716431,5.89140455 18.8323514,3.69949151 C23.2711639,1.39983934 27.9510389,1.39983934 30.4408097,3.90827412 Z M25.7494556,5.49149151 C26.1312889,5.10740455 26.1312889,4.48288281 25.7500597,4.09757847 C25.3670181,3.71227412 24.7477472,3.71227412 24.3659139,4.09757847 C23.9828722,4.48288281 23.9828722,5.10740455 24.3659139,5.4927089 C24.7477472,5.87679586 25.3670181,5.87679586 25.7494556,5.49149151 Z M17.2228514,4.64296977 C17.3243514,6.95783934 18.3012889,9.31349151 20.1276847,11.1541872 C21.5069972,12.5438393 23.1781222,13.4428828 24.9030181,13.8458393 C24.3181847,14.5038393 23.6989139,15.1673176 23.0458097,15.8301872 L22.8875181,18.1201002 C22.8536847,18.6107089 22.6416222,19.0708828 22.2972472,19.418448 L21.8495597,19.8701002 C21.6749556,20.0447959 21.4254347,20.118448 21.1861847,20.0600132 C20.9469347,20.0021872 20.7572264,19.8256654 20.6817056,19.5901002 L20.2630181,18.2874915 C16.5238306,21.1660132 12.2185389,23.0773176 9.73662224,23.4894046 L7.91626807,28.8240132 C7.8341014,29.0626219 7.6166014,29.2294046 7.3646639,29.2427959 C7.11393474,29.2561872 6.8789139,29.1149698 6.7719764,28.8861002 L5.6862889,26.5639263 C5.47362224,26.1098393 5.1117264,25.7446219 4.6604139,25.5303611 L2.3549139,24.436535 C2.12714307,24.3294046 1.98758057,24.0926219 2.00087224,23.8387959 C2.0141639,23.5855785 2.17849724,23.366448 2.41714307,23.2842741 L7.7036014,21.4521002 C7.88364307,19.6783611 8.54399724,16.8777524 9.7607889,14.0193176 L8.5464139,13.3783611 C8.06368474,13.1233176 7.72837224,12.6503611 7.6456014,12.1080132 C7.56343474,11.564448 7.7380389,11.0117524 8.1241014,10.6227959 L13.4782264,5.22853499 C14.0086847,4.6947089 14.8249139,4.57357847 15.4888931,4.92357847 L16.2501431,5.32775238 C16.5709556,5.0867089 16.8953931,4.85844803 17.2228514,4.64296977 Z" id="Combined-Shape" fill="#FFB548" fill-rule="nonzero"></path>
    </g>
</svg>