<svg xmlns="http://www.w3.org/2000/svg" preserveAspectRatio="xMinYMin meet" viewBox="0 0 311 43">
  <g fill="none">
    <path fill="#FE5858" d="M73.70004,30.96328 C74.1594023,31.6523234 74.38908,32.3030769 74.38908,32.91556 C74.38908,33.7322041 74.0509434,34.4148573 73.37466,34.96354 C72.6983766,35.5122227 71.9136445,35.78656 71.02044,35.78656 C70.4079569,35.78656 69.8337627,35.6462014 69.29784,35.36548 C68.7619173,35.0847586 68.3025619,34.6636828 67.91976,34.10224 L62.94336,26.82904 C62.5860782,26.3186374 62.209662,25.9422212 61.8141,25.69978 C61.418538,25.4573388 60.9528027,25.33612 60.41688,25.33612 L57.92868,25.33612 L57.92868,32.18824 C57.92868,33.2600854 57.6224431,34.1086169 57.00996,34.73386 C56.3974769,35.3591031 55.5553254,35.67172 54.48348,35.67172 C53.4116346,35.67172 52.5631031,35.3591031 51.93786,34.73386 C51.3126169,34.1086169 51,33.2600854 51,32.18824 L51,11.70844 C51,10.6621148 51.2807172,9.85824281 51.84216,9.2968 C52.4036028,8.73535719 53.2074748,8.45464 54.2538,8.45464 L63.86208,8.45464 C67.1286563,8.45464 69.5849318,9.16281292 71.23098,10.57918 C72.8770282,11.9955471 73.70004,14.0435066 73.70004,16.72312 C73.70004,18.7647302 73.1386056,20.4936929 72.01572,21.91006 C70.8928344,23.3264271 69.3106102,24.2770376 67.269,24.76192 C68.1111642,24.8895206 68.8448569,25.1702378 69.4701,25.60408 C70.0953431,26.0379222 70.7141969,26.6886757 71.32668,27.55636 L73.70004,30.96328 Z M62.75196,20.05348 C64.3086878,20.05348 65.4251766,19.8110424 66.10146,19.32616 C66.7777434,18.8412776 67.11588,18.0501655 67.11588,16.9528 C67.11588,15.8299144 66.7777434,15.0196625 66.10146,14.52202 C65.4251766,14.0243775 64.3086878,13.77556 62.75196,13.77556 L57.85212,13.77556 L57.85212,20.05348 L62.75196,20.05348 Z M92.9166,29.3938 C93.5035629,29.3938 93.9820581,29.6234777 94.3521,30.08284 C94.7221419,30.5422023 94.90716,31.1419163 94.90716,31.882 C94.90716,32.9028051 94.409525,33.6811573 93.41424,34.21708 C92.5465557,34.6509222 91.5193859,35.0145785 90.3327,35.30806 C89.1460141,35.6015415 88.055045,35.74828 87.05976,35.74828 C84.9671095,35.74828 83.1424478,35.352724 81.58572,34.5616 C80.0289922,33.770476 78.8295642,32.6348474 77.9874,31.15468 C77.1452358,29.6745126 76.72416,27.93917 76.72416,25.9486 C76.72416,24.0601106 77.126096,22.3694275 77.92998,20.8765 C78.733864,19.3835725 79.8567328,18.2224241 81.29862,17.39302 C82.7405072,16.5636159 84.3673909,16.14892 86.17932,16.14892 C87.9402088,16.14892 89.4841534,16.5317162 90.8112,17.29732 C92.1382466,18.0629238 93.1654164,19.147513 93.89274,20.55112 C94.6200636,21.954727 94.98372,23.6007506 94.98372,25.48924 C94.98372,26.0762029 94.8497413,26.5291784 94.58178,26.84818 C94.3138187,27.1671816 93.9246426,27.32668 93.41424,27.32668 L83.30832,27.32668 C83.4869609,28.5516461 83.8825169,29.4320773 84.495,29.968 C85.1074831,30.5039227 86.013434,30.77188 87.21288,30.77188 C87.8508832,30.77188 88.4378373,30.7017007 88.97376,30.56134 C89.5096827,30.4209793 90.1093967,30.2232013 90.77292,29.968 C91.1557219,29.8148792 91.5321381,29.6809006 91.90218,29.56606 C92.2722219,29.4512194 92.6103585,29.3938 92.9166,29.3938 Z M86.37072,20.74252 C85.4775155,20.74252 84.7629627,21.0296171 84.22704,21.60382 C83.6911173,22.1780229 83.3721205,23.0137945 83.27004,24.11116 L89.28,24.11116 C89.1268792,21.8653888 88.1571289,20.74252 86.37072,20.74252 Z M107.15676,35.74828 C104.094345,35.74828 101.669969,34.8806087 99.88356,33.14524 C98.0971511,31.4098713 97.20396,29.0492949 97.20396,26.06344 C97.20396,24.0983902 97.6377957,22.3630475 98.50548,20.85736 C99.3731643,19.3516725 100.591732,18.1905241 102.16122,17.37388 C103.730708,16.5572359 105.52347,16.14892 107.53956,16.14892 C108.611405,16.14892 109.683235,16.2892786 110.75508,16.57 C111.826925,16.8507214 112.771156,17.2462774 113.5878,17.75668 C114.378924,18.2415624 114.77448,18.981635 114.77448,19.97692 C114.77448,20.768044 114.589462,21.4124175 114.21942,21.91006 C113.849378,22.4077025 113.370883,22.65652 112.78392,22.65652 C112.401118,22.65652 112.031082,22.5991006 111.6738,22.48426 C111.316518,22.3694194 110.920962,22.1971611 110.48712,21.96748 C109.976717,21.7377989 109.542882,21.5655406 109.1856,21.4507 C108.828318,21.3358594 108.432762,21.27844 107.99892,21.27844 C105.472427,21.27844 104.2092,22.8223846 104.2092,25.91032 C104.2092,27.4415277 104.534577,28.609056 105.18534,29.41294 C105.836103,30.216824 106.773954,30.61876 107.99892,30.61876 C108.432762,30.61876 108.834698,30.5613406 109.20474,30.4465 C109.574782,30.3316594 109.989478,30.1594011 110.44884,29.92972 C110.959243,29.7000389 111.373938,29.5277806 111.69294,29.41294 C112.011942,29.2980994 112.362838,29.24068 112.74564,29.24068 C113.332603,29.24068 113.811098,29.4894975 114.18114,29.98714 C114.551182,30.4847825 114.7362,31.129156 114.7362,31.92028 C114.7362,32.4051624 114.634121,32.845378 114.42996,33.24094 C114.225799,33.636502 113.945082,33.936359 113.5878,34.14052 C111.826911,35.2123654 109.683253,35.74828 107.15676,35.74828 Z M120.63132,35.67172 C119.661555,35.67172 118.851303,35.4101426 118.20054,34.88698 C117.549777,34.3638174 117.2244,33.5790852 117.2244,32.53276 L117.2244,19.36444 C117.2244,18.3181148 117.549777,17.5333826 118.20054,17.01022 C118.851303,16.4870574 119.661555,16.22548 120.63132,16.22548 C121.601085,16.22548 122.411337,16.4870574 123.0621,17.01022 C123.712863,17.5333826 124.03824,18.3181148 124.03824,19.36444 L124.03824,32.53276 C124.03824,33.5790852 123.712863,34.3638174 123.0621,34.88698 C122.411337,35.4101426 121.601085,35.67172 120.63132,35.67172 Z M120.63132,13.54588 C119.482914,13.54588 118.570583,13.246023 117.8943,12.6463 C117.218017,12.046577 116.87988,11.249085 116.87988,10.2538 C116.87988,9.25851502 117.218017,8.46740293 117.8943,7.88044 C118.570583,7.29347707 119.482914,7 120.63132,7 C121.754206,7 122.660157,7.29347707 123.3492,7.88044 C124.038243,8.46740293 124.38276,9.25851502 124.38276,10.2538 C124.38276,11.249085 124.044623,12.046577 123.36834,12.6463 C122.692057,13.246023 121.779726,13.54588 120.63132,13.54588 Z M140.46036,16.14892 C142.068128,16.14892 143.503614,16.5636159 144.76686,17.39302 C146.030106,18.2224241 147.012616,19.3899525 147.71442,20.89564 C148.416224,22.4013275 148.76712,24.1239103 148.76712,26.06344 C148.76712,28.0029697 148.416224,29.7064127 147.71442,31.17382 C147.012616,32.6412273 146.036486,33.770476 144.786,34.5616 C143.535514,35.352724 142.093648,35.74828 140.46036,35.74828 C139.260914,35.74828 138.157185,35.5058424 137.14914,35.02096 C136.141095,34.5360776 135.356363,33.8853241 134.79492,33.06868 L134.79492,39.57628 C134.79492,40.4694845 134.488683,41.1840373 133.8762,41.71996 C133.263717,42.2558827 132.459845,42.52384 131.46456,42.52384 C130.418235,42.52384 129.576083,42.2367429 128.93808,41.66254 C128.300077,41.0883371 127.98108,40.3546445 127.98108,39.46144 L127.98108,19.36444 C127.98108,18.4201953 128.280937,17.6609829 128.88066,17.08678 C129.480383,16.5125771 130.290635,16.22548 131.31144,16.22548 C132.281205,16.22548 133.065937,16.4806774 133.66566,16.99108 C134.265383,17.5014826 134.60352,18.1777558 134.68008,19.01992 C135.216003,18.1267155 136.000735,17.4249226 137.0343,16.91452 C138.067865,16.4041174 139.209874,16.14892 140.46036,16.14892 Z M138.39324,30.65704 C139.567166,30.65704 140.466737,30.261484 141.09198,29.47036 C141.717223,28.679236 142.02984,27.5436074 142.02984,26.06344 C142.02984,24.5067122 141.710843,23.3136641 141.07284,22.48426 C140.434837,21.6548559 139.528886,21.24016 138.35496,21.24016 C137.181034,21.24016 136.275083,21.6484759 135.63708,22.46512 C134.999077,23.2817641 134.68008,24.4556723 134.68008,25.98688 C134.68008,27.4925675 134.999077,28.647336 135.63708,29.45122 C136.275083,30.255104 137.193794,30.65704 138.39324,30.65704 Z M167.21808,29.3938 C167.805043,29.3938 168.283538,29.6234777 168.65358,30.08284 C169.023622,30.5422023 169.20864,31.1419163 169.20864,31.882 C169.20864,32.9028051 168.711005,33.6811573 167.71572,34.21708 C166.848036,34.6509222 165.820866,35.0145785 164.63418,35.30806 C163.447494,35.6015415 162.356525,35.74828 161.36124,35.74828 C159.26859,35.74828 157.443928,35.352724 155.8872,34.5616 C154.330472,33.770476 153.131044,32.6348474 152.28888,31.15468 C151.446716,29.6745126 151.02564,27.93917 151.02564,25.9486 C151.02564,24.0601106 151.427576,22.3694275 152.23146,20.8765 C153.035344,19.3835725 154.158213,18.2224241 155.6001,17.39302 C157.041987,16.5636159 158.668871,16.14892 160.4808,16.14892 C162.241689,16.14892 163.785633,16.5317162 165.11268,17.29732 C166.439727,18.0629238 167.466896,19.147513 168.19422,20.55112 C168.921544,21.954727 169.2852,23.6007506 169.2852,25.48924 C169.2852,26.0762029 169.151221,26.5291784 168.88326,26.84818 C168.615299,27.1671816 168.226123,27.32668 167.71572,27.32668 L157.6098,27.32668 C157.788441,28.5516461 158.183997,29.4320773 158.79648,29.968 C159.408963,30.5039227 160.314914,30.77188 161.51436,30.77188 C162.152363,30.77188 162.739317,30.7017007 163.27524,30.56134 C163.811163,30.4209793 164.410877,30.2232013 165.0744,29.968 C165.457202,29.8148792 165.833618,29.6809006 166.20366,29.56606 C166.573702,29.4512194 166.911838,29.3938 167.21808,29.3938 Z M160.6722,20.74252 C159.778996,20.74252 159.064443,21.0296171 158.52852,21.60382 C157.992597,22.1780229 157.673601,23.0137945 157.57152,24.11116 L163.58148,24.11116 C163.428359,21.8653888 162.458609,20.74252 160.6722,20.74252 Z M206.56992,30.1594 C207.233443,30.7974032 207.5652,31.5374758 207.5652,32.37964 C207.5652,33.2218042 207.246203,33.9618768 206.6082,34.59988 C205.970197,35.2378832 205.217364,35.55688 204.34968,35.55688 C203.405435,35.55688 202.537764,35.1485641 201.74664,34.33192 L190.83684,23.15416 L190.83684,32.18824 C190.83684,33.2600854 190.517843,34.1086169 189.87984,34.73386 C189.241837,35.3591031 188.374165,35.67172 187.2768,35.67172 C186.204955,35.67172 185.356423,35.3591031 184.73118,34.73386 C184.105937,34.1086169 183.79332,33.2600854 183.79332,32.18824 L183.79332,11.70844 C183.79332,10.6621148 184.105937,9.82634313 184.73118,9.2011 C185.356423,8.57585687 186.204955,8.26324 187.2768,8.26324 C188.374165,8.26324 189.241837,8.57585687 189.87984,9.2011 C190.517843,9.82634313 190.83684,10.6621148 190.83684,11.70844 L190.83684,20.13004 L201.59352,9.2968 C202.257043,8.60775655 203.009876,8.26324 203.85204,8.26324 C204.694204,8.26324 205.434277,8.57585687 206.07228,9.2011 C206.710283,9.82634313 207.02928,10.5600358 207.02928,11.4022 C207.02928,12.2443642 206.659244,13.0227164 205.91916,13.73728 L198.07176,21.43156 L206.56992,30.1594 Z M225.3654,29.3938 C225.952363,29.3938 226.430858,29.6234777 226.8009,30.08284 C227.170942,30.5422023 227.35596,31.1419163 227.35596,31.882 C227.35596,32.9028051 226.858325,33.6811573 225.86304,34.21708 C224.995356,34.6509222 223.968186,35.0145785 222.7815,35.30806 C221.594814,35.6015415 220.503845,35.74828 219.50856,35.74828 C217.41591,35.74828 215.591248,35.352724 214.03452,34.5616 C212.477792,33.770476 211.278364,32.6348474 210.4362,31.15468 C209.594036,29.6745126 209.17296,27.93917 209.17296,25.9486 C209.17296,24.0601106 209.574896,22.3694275 210.37878,20.8765 C211.182664,19.3835725 212.305533,18.2224241 213.74742,17.39302 C215.189307,16.5636159 216.816191,16.14892 218.62812,16.14892 C220.389009,16.14892 221.932953,16.5317162 223.26,17.29732 C224.587047,18.0629238 225.614216,19.147513 226.34154,20.55112 C227.068864,21.954727 227.43252,23.6007506 227.43252,25.48924 C227.43252,26.0762029 227.298541,26.5291784 227.03058,26.84818 C226.762619,27.1671816 226.373443,27.32668 225.86304,27.32668 L215.75712,27.32668 C215.935761,28.5516461 216.331317,29.4320773 216.9438,29.968 C217.556283,30.5039227 218.462234,30.77188 219.66168,30.77188 C220.299683,30.77188 220.886637,30.7017007 221.42256,30.56134 C221.958483,30.4209793 222.558197,30.2232013 223.22172,29.968 C223.604522,29.8148792 223.980938,29.6809006 224.35098,29.56606 C224.721022,29.4512194 225.059158,29.3938 225.3654,29.3938 Z M218.81952,20.74252 C217.926316,20.74252 217.211763,21.0296171 216.67584,21.60382 C216.139917,22.1780229 215.820921,23.0137945 215.71884,24.11116 L221.7288,24.11116 C221.575679,21.8653888 220.605929,20.74252 218.81952,20.74252 Z M245.8452,29.3938 C246.432163,29.3938 246.910658,29.6234777 247.2807,30.08284 C247.650742,30.5422023 247.83576,31.1419163 247.83576,31.882 C247.83576,32.9028051 247.338125,33.6811573 246.34284,34.21708 C245.475156,34.6509222 244.447986,35.0145785 243.2613,35.30806 C242.074614,35.6015415 240.983645,35.74828 239.98836,35.74828 C237.89571,35.74828 236.071048,35.352724 234.51432,34.5616 C232.957592,33.770476 231.758164,32.6348474 230.916,31.15468 C230.073836,29.6745126 229.65276,27.93917 229.65276,25.9486 C229.65276,24.0601106 230.054696,22.3694275 230.85858,20.8765 C231.662464,19.3835725 232.785333,18.2224241 234.22722,17.39302 C235.669107,16.5636159 237.295991,16.14892 239.10792,16.14892 C240.868809,16.14892 242.412753,16.5317162 243.7398,17.29732 C245.066847,18.0629238 246.094016,19.147513 246.82134,20.55112 C247.548664,21.954727 247.91232,23.6007506 247.91232,25.48924 C247.91232,26.0762029 247.778341,26.5291784 247.51038,26.84818 C247.242419,27.1671816 246.853243,27.32668 246.34284,27.32668 L236.23692,27.32668 C236.415561,28.5516461 236.811117,29.4320773 237.4236,29.968 C238.036083,30.5039227 238.942034,30.77188 240.14148,30.77188 C240.779483,30.77188 241.366437,30.7017007 241.90236,30.56134 C242.438283,30.4209793 243.037997,30.2232013 243.70152,29.968 C244.084322,29.8148792 244.460738,29.6809006 244.83078,29.56606 C245.200822,29.4512194 245.538958,29.3938 245.8452,29.3938 Z M239.29932,20.74252 C238.406116,20.74252 237.691563,21.0296171 237.15564,21.60382 C236.619717,22.1780229 236.300721,23.0137945 236.19864,24.11116 L242.2086,24.11116 C242.055479,21.8653888 241.085729,20.74252 239.29932,20.74252 Z M263.49228,16.14892 C265.100048,16.14892 266.535534,16.5636159 267.79878,17.39302 C269.062026,18.2224241 270.044536,19.3899525 270.74634,20.89564 C271.448144,22.4013275 271.79904,24.1239103 271.79904,26.06344 C271.79904,28.0029697 271.448144,29.7064127 270.74634,31.17382 C270.044536,32.6412273 269.068406,33.770476 267.81792,34.5616 C266.567434,35.352724 265.125568,35.74828 263.49228,35.74828 C262.292834,35.74828 261.189105,35.5058424 260.18106,35.02096 C259.173015,34.5360776 258.388283,33.8853241 257.82684,33.06868 L257.82684,39.57628 C257.82684,40.4694845 257.520603,41.1840373 256.90812,41.71996 C256.295637,42.2558827 255.491765,42.52384 254.49648,42.52384 C253.450155,42.52384 252.608003,42.2367429 251.97,41.66254 C251.331997,41.0883371 251.013,40.3546445 251.013,39.46144 L251.013,19.36444 C251.013,18.4201953 251.312857,17.6609829 251.91258,17.08678 C252.512303,16.5125771 253.322555,16.22548 254.34336,16.22548 C255.313125,16.22548 256.097857,16.4806774 256.69758,16.99108 C257.297303,17.5014826 257.63544,18.1777558 257.712,19.01992 C258.247923,18.1267155 259.032655,17.4249226 260.06622,16.91452 C261.099785,16.4041174 262.241794,16.14892 263.49228,16.14892 Z M261.42516,30.65704 C262.599086,30.65704 263.498657,30.261484 264.1239,29.47036 C264.749143,28.679236 265.06176,27.5436074 265.06176,26.06344 C265.06176,24.5067122 264.742763,23.3136641 264.10476,22.48426 C263.466757,21.6548559 262.560806,21.24016 261.38688,21.24016 C260.212954,21.24016 259.307003,21.6484759 258.669,22.46512 C258.030997,23.2817641 257.712,24.4556723 257.712,25.98688 C257.712,27.4925675 258.030997,28.647336 258.669,29.45122 C259.307003,30.255104 260.225714,30.65704 261.42516,30.65704 Z M290.25,29.3938 C290.836963,29.3938 291.315458,29.6234777 291.6855,30.08284 C292.055542,30.5422023 292.24056,31.1419163 292.24056,31.882 C292.24056,32.9028051 291.742925,33.6811573 290.74764,34.21708 C289.879956,34.6509222 288.852786,35.0145785 287.6661,35.30806 C286.479414,35.6015415 285.388445,35.74828 284.39316,35.74828 C282.30051,35.74828 280.475848,35.352724 278.91912,34.5616 C277.362392,33.770476 276.162964,32.6348474 275.3208,31.15468 C274.478636,29.6745126 274.05756,27.93917 274.05756,25.9486 C274.05756,24.0601106 274.459496,22.3694275 275.26338,20.8765 C276.067264,19.3835725 277.190133,18.2224241 278.63202,17.39302 C280.073907,16.5636159 281.700791,16.14892 283.51272,16.14892 C285.273609,16.14892 286.817553,16.5317162 288.1446,17.29732 C289.471647,18.0629238 290.498816,19.147513 291.22614,20.55112 C291.953464,21.954727 292.31712,23.6007506 292.31712,25.48924 C292.31712,26.0762029 292.183141,26.5291784 291.91518,26.84818 C291.647219,27.1671816 291.258043,27.32668 290.74764,27.32668 L280.64172,27.32668 C280.820361,28.5516461 281.215917,29.4320773 281.8284,29.968 C282.440883,30.5039227 283.346834,30.77188 284.54628,30.77188 C285.184283,30.77188 285.771237,30.7017007 286.30716,30.56134 C286.843083,30.4209793 287.442797,30.2232013 288.10632,29.968 C288.489122,29.8148792 288.865538,29.6809006 289.23558,29.56606 C289.605622,29.4512194 289.943758,29.3938 290.25,29.3938 Z M283.70412,20.74252 C282.810916,20.74252 282.096363,21.0296171 281.56044,21.60382 C281.024517,22.1780229 280.705521,23.0137945 280.60344,24.11116 L286.6134,24.11116 C286.460279,21.8653888 285.490529,20.74252 283.70412,20.74252 Z M307.36116,16.22548 C308.228844,16.1489196 308.917877,16.3466976 309.42828,16.81882 C309.938683,17.2909424 310.19388,17.9863554 310.19388,18.90508 C310.19388,19.9258851 309.957822,20.6659577 309.4857,21.12532 C309.013578,21.5846823 308.165046,21.8781594 306.94008,22.00576 L305.79168,22.1206 C304.515674,22.2737208 303.603343,22.6756567 303.05466,23.32642 C302.505977,23.9771833 302.23164,24.8639944 302.23164,25.98688 L302.23164,32.53276 C302.23164,33.5790852 301.906263,34.3638174 301.2555,34.88698 C300.604737,35.4101426 299.794485,35.67172 298.82472,35.67172 C297.854955,35.67172 297.044703,35.4101426 296.39394,34.88698 C295.743177,34.3638174 295.4178,33.5790852 295.4178,32.53276 L295.4178,19.28788 C295.4178,18.3181152 295.743177,17.5652827 296.39394,17.02936 C297.044703,16.4934373 297.829435,16.22548 298.74816,16.22548 C299.692405,16.22548 300.451617,16.4806774 301.02582,16.99108 C301.600023,17.5014826 301.88712,18.2160354 301.88712,19.13476 L301.88712,19.86208 C302.295442,18.7391944 302.965335,17.8715231 303.89682,17.25904 C304.828305,16.6465569 305.804435,16.3148003 306.82524,16.26376 L307.36116,16.22548 Z"/>
    <path fill="#635D9D" d="M38.3999977,4.50112282 C38.3999977,7.72224077 35.2587479,9.78808535 32.0309356,12.6207268 C31.8059356,12.8194084 31.5256231,12.9181145 31.2456231,12.9181145 C30.9656231,12.9181145 30.6856231,12.8194084 30.4593732,12.6207268 C27.0403109,9.60971626 24.0924986,7.62670857 24.0924986,4.50112282 C24.0924986,1.9769774 25.9265609,0 28.2690608,0 C29.5874982,0 30.5649982,0.611596664 31.2456231,1.38061519 C31.9278106,0.611596664 32.904998,0 34.2234355,0 C36.5659353,0 38.3999977,1.9769774 38.3999977,4.50112282 Z M0,26.8124984 C0,24.1239487 2.15281235,21.9374987 4.79999971,21.9374987 L33.599998,21.9374987 C36.2471854,21.9374987 38.3999977,24.1239487 38.3999977,26.8124984 C38.3999977,29.5010481 36.2471854,31.6874981 33.599998,31.6874981 L33.599998,37.9437477 C33.599998,39.9597632 31.9849981,41.5999975 29.9999982,41.5999975 L8.3999995,41.5999975 C6.41499962,41.5999975 4.79999971,39.9597632 4.79999971,37.9437477 L4.79999971,31.6874981 C2.15281235,31.6874981 0,29.5010481 0,26.8124984 Z M35.9999979,26.8124984 C35.9999979,25.4686997 34.9231229,24.3749985 33.599998,24.3749985 L33.599998,29.2499983 C34.9231229,29.2499983 35.9999979,28.1562971 35.9999979,26.8124984 Z M4.79999971,24.3749985 C3.47687483,24.3749985 2.39999986,25.4686997 2.39999986,26.8124984 C2.39999986,28.1562971 3.47687483,29.2499983 4.79999971,29.2499983 L4.79999971,24.3749985 Z M5.0449997,14.0584709 C5.72218718,12.5826408 6.92468711,11.4638665 8.43156198,10.9068597 L14.0693742,8.8229243 L13.2481242,6.53142053 L12.1206242,6.94814412 C11.5056243,7.17634237 10.8115618,6.85895957 10.5831243,6.21975059 C10.3559369,5.5878415 10.6768744,4.88801238 11.3003118,4.65822724 C11.8274993,4.46335425 19.9196863,1.47297352 20.3215613,1.32475582 C20.9424988,1.09624021 21.6328112,1.41997058 21.8590612,2.05314927 C22.0862487,2.68505843 21.7653112,3.38488747 21.1418738,3.61467262 L20.0137488,4.03139628 L20.8343738,6.32226525 L21.8428112,5.94934045 C22.3481236,8.44079542 24.122811,10.3066888 26.1849984,12.1252922 L19.4228113,14.6249991 L5.99999964,14.6249991 C5.56499967,14.6249991 5.15312465,14.7157706 4.7665622,14.8601798 C4.84843723,14.590087 4.92531219,14.3187248 5.0449997,14.0584709 Z M5.99999964,17.062499 L32.3999981,17.062499 C33.063123,17.062499 33.599998,17.6077627 33.599998,18.2812489 L33.599998,19.4999988 L4.79999971,19.4999988 L4.79999971,18.2812489 C4.79999971,17.6077627 5.33687472,17.062499 5.99999964,17.062499 Z"/>
  </g>
</svg>
