<?xml version="1.0" encoding="UTF-8"?>
<svg width="32px" height="32px" viewBox="0 0 32 32" version="1.1" xmlns="http://www.w3.org/2000/svg" xmlns:xlink="http://www.w3.org/1999/xlink">
    <!-- Generator: Sketch 54.1 (76490) - https://sketchapp.com -->
    <title>MeatDish</title>
    <desc>Created with Sketch.</desc>
    <g id="MeatDish" stroke="none" stroke-width="1">
        <path d="M24.086,26.0329756 C27.28,26.0329756 29.786,24.6447805 31.282,22.260878 C30.4213333,28.470878 24.7586667,31.3809512 15.5166667,26.0882927 C8.00733333,21.7887073 0.172,24.9641707 0.00733333333,17.9059756 C1.56333333,19.6524146 4.16933333,20.1199756 6.72466667,20.5730488 C9.226,21.0149268 12.0606667,21.5154146 14.8033333,23.0866829 C18.216,25.0412195 21.34,26.0329756 24.086,26.0329756 Z M7.90466667,16.9313415 C4.294,16.3544634 1.90866667,15.9718537 1.90933333,12.6014634 C1.90933333,7.39968293 6.87533333,4.4165122 15.5353333,4.4165122 C23.2306667,4.4165122 29.492,9.13031707 29.492,14.924122 C29.492,16.8444146 28.936,18.4532195 27.8826667,19.578 C26.7953333,20.7383415 25.192,21.3527561 23.2446667,21.3527561 C21.0566667,21.3520976 18.5153333,20.6099268 15.6906667,19.1473171 C12.98,17.7426585 10.284,17.3119756 7.90466667,16.9313415 Z M9.86533333,7.52282927 C7.69666667,7.52282927 5.938,8.86756098 5.938,10.5250976 C5.938,12.1832927 7.69666667,13.5280244 9.86533333,13.5280244 C12.0346667,13.5280244 13.7933333,12.1832927 13.7933333,10.5250976 C13.7933333,8.86756098 12.0346667,7.52282927 9.86533333,7.52282927 Z M15.5166667,21.8703659 C7.92666667,17.5246829 -4.4408921e-14,20.8226341 -4.4408921e-14,13.466122 C-4.4408921e-14,6.10960976 6.74333333,3.00065854 15.5166667,3 C24.2906667,3 31.4013333,8.96436585 31.4013333,16.3202195 C31.4013333,23.6760732 25.5766667,27.6312439 15.5166667,21.8703659 Z M15.5353333,3.75731707 C6.452,3.75731707 1.242,6.98085366 1.24333333,12.602122 C1.24333333,16.5329268 4.136,16.995878 7.79866667,17.5826341 C10.128,17.9553659 12.7673333,18.3774878 15.3813333,19.7307805 C18.3026667,21.2440976 20.9486667,22.0119512 23.2453333,22.0119512 C25.3833333,22.0119512 27.1553333,21.324439 28.3726667,20.0251463 C29.5406667,18.776561 30.1593333,17.0123415 30.1593333,14.9234634 C30.1593333,8.76614634 23.5993333,3.75731707 15.5353333,3.75731707 Z M9.86533333,12.0140488 C8.79021902,12.0140488 7.91866667,11.3477174 7.91866667,10.5257561 C7.91866667,9.70379475 8.79021902,9.03746341 9.86533333,9.03746341 C10.9404476,9.03746341 11.812,9.70379475 11.812,10.5257561 C11.812,11.3477174 10.9404476,12.0140488 9.86533333,12.0140488 Z" id="Combined-Shape"></path>
    </g>
</svg>