<?xml version="1.0" encoding="UTF-8"?>
<svg width="22px" height="22px" viewBox="0 0 22 22" version="1.1" xmlns="http://www.w3.org/2000/svg" xmlns:xlink="http://www.w3.org/1999/xlink">
    <!-- Generator: Sketch 54.1 (76490) - https://sketchapp.com -->
    <title>BinIcon</title>
    <desc>Created with Sketch.</desc>
    <g id="BinIcon" stroke="none" stroke-width="1">
        <path d="M4.33334093,21.5113826 L4.33334093,5.67986008 L17.7219995,5.67986008 L17.7219995,21.5113826 C17.7219995,21.781246 17.5031048,22 17.2330679,22 L4.82227253,22 C4.55223561,22 4.33334093,21.781246 4.33334093,21.5113826 Z M13.7779105,8.37407218 L13.7779105,19.0266408 L15.611404,19.0266408 L15.611404,8.37407218 L13.7779105,8.37407218 Z M10.1109234,8.37407218 L10.1109234,19.0266408 L11.944417,19.0266408 L11.944417,8.37407218 L10.1109234,8.37407218 Z M6.44393643,8.37407218 L6.44393643,19.0266408 L8.27742994,19.0266408 L8.27742994,8.37407218 L6.44393643,8.37407218 Z M15.1487525,2.24546585 L15.1487525,2.55085175 L15.1487525,2.85623765 L18.5664088,2.85623765 C18.8364457,2.85623765 19.0553404,3.07499167 19.0553404,3.34485508 L19.0553404,4.58047085 C19.0553404,4.85030983 18.8364457,5.06908828 18.5664088,5.06908828 L17.7219995,5.06908828 L4.33334093,5.06908828 L3.4889316,5.06908828 C3.21889468,5.06908828 3,4.85030983 3,4.58047085 L3,3.34485508 C3,3.07499167 3.21889468,2.85623765 3.4889316,2.85623765 L6.90658796,2.85623765 L6.90658796,2.55085175 L6.90658796,2.24546585 L6.90658796,0.488617435 C6.90658796,0.218754026 7.12548263,1.33226763e-15 7.39551956,1.33226763e-15 L14.6598209,1.33226763e-15 C14.9298578,1.33226763e-15 15.1487525,0.218754026 15.1487525,0.488617435 L15.1487525,2.24546585 Z M13.3152589,2.7557779 L13.3152589,2.55085175 L13.3152589,2.24546585 L13.3152589,1.83231538 L8.74008147,1.83231538 L8.74008147,2.24544142 L8.74008147,2.55082732 L8.74008147,2.7557779 L13.3152589,2.7557779 Z"></path>
    </g>
</svg>