<?xml version="1.0" encoding="UTF-8"?>
<svg width="22px" height="22px" viewBox="0 0 22 22" version="1.1" xmlns="http://www.w3.org/2000/svg" xmlns:xlink="http://www.w3.org/1999/xlink">
    <!-- Generator: Sketch 54.1 (76490) - https://sketchapp.com -->
    <title>PencilSVG</title>
    <desc>Created with Sketch.</desc>
    <g id="PencilSVG" stroke="none" stroke-width="1">
        <g></g>
        <path d="M21.1958319,6.63946481 L20.2234941,7.61225609 L14.3889681,1.77854628 L15.361306,0.805664328 C16.4353891,-0.268554776 18.1771638,-0.268554776 19.2513376,0.805664328 L21.1958319,2.75065744 C22.2684641,3.82428712 22.2684641,5.56533639 21.1958319,6.63946481 Z M7.58251239,18.306159 C7.31400295,18.5746684 7.31400295,19.009534 7.58251239,19.2780888 C7.85115784,19.5480944 8.28625013,19.5480944 8.55475957,19.2780888 L19.2513376,8.58445793 L18.2779115,7.61157597 L7.58251239,18.306159 Z M2.72046033,13.4452404 C2.45181488,13.7139766 2.45181488,14.1486608 2.72046033,14.4173516 C2.98896977,14.6859064 3.42406206,14.6859064 3.69270752,14.4173516 L14.3889681,3.72290463 L13.4170383,2.75065744 L2.72046033,13.4452404 Z M15.3600364,4.69442635 L4.664728,15.3895081 C4.12766378,15.9255295 4.12902401,16.7969382 4.664728,17.3340025 C5.20201891,17.871112 6.07202213,17.8736058 6.61049191,17.3325515 L17.3058004,6.63946481 L15.3600364,4.69442635 Z M6.60772611,20.2478422 C6.27886779,19.9185758 6.12035564,19.5013025 6.06136699,19.0713338 C5.92158067,19.0929161 5.78079685,19.1130022 5.63697518,19.1130022 C4.90236021,19.1130022 4.21240612,18.8258576 3.69270752,18.306159 C3.17300891,17.7851455 2.88699785,17.0961435 2.88699785,16.3616193 C2.88699785,16.2276819 2.90708391,16.0971452 2.92594577,15.9670165 C2.48146789,15.9064862 2.07063304,15.711792 1.74834918,15.3895081 C1.71742661,15.3588122 1.70677147,15.3171438 1.67861471,15.2835008 L0,22 L6.69904289,20.3230176 C6.6695259,20.2961304 6.63610958,20.2759989 6.60772611,20.2478422 Z" id="Shape"></path>
    </g>
</svg>