<?xml version="1.0" encoding="UTF-8"?>
<svg width="13px" height="13px" viewBox="0 0 13 13" version="1.1" xmlns="http://www.w3.org/2000/svg" xmlns:xlink="http://www.w3.org/1999/xlink">
    <!-- Generator: Sketch 54.1 (76490) - https://sketchapp.com -->
    <title>PlusSymbol</title>
    <desc>Created with Sketch.</desc>
    <g id="PlusSymbol" stroke="none" stroke-width="1">
        <path d="M12.0714286,5.10714286 L7.89285714,5.10714286 L7.89285714,0.928571429 C7.89285714,0.415825893 7.47703125,0 6.96428571,0 L6.03571429,0 C5.52296875,0 5.10714286,0.415825893 5.10714286,0.928571429 L5.10714286,5.10714286 L0.928571429,5.10714286 C0.415825893,5.10714286 0,5.52296875 0,6.03571429 L0,6.96428571 C0,7.47703125 0.415825893,7.89285714 0.928571429,7.89285714 L5.10714286,7.89285714 L5.10714286,12.0714286 C5.10714286,12.5841741 5.52296875,13 6.03571429,13 L6.96428571,13 C7.47703125,13 7.89285714,12.5841741 7.89285714,12.0714286 L7.89285714,7.89285714 L12.0714286,7.89285714 C12.5841741,7.89285714 13,7.47703125 13,6.96428571 L13,6.03571429 C13,5.52296875 12.5841741,5.10714286 12.0714286,5.10714286 Z" id="Path"></path>
    </g>
</svg>