<svg xmlns="http://www.w3.org/2000/svg" preserveAspectRatio="xMinYMin meet" viewBox="0 0 28 28">
  <path fill="#FE5858" d="M27.6171875,24.162963 L22.1648438,18.7212476 C21.91875,18.4756335 21.5851563,18.3391813 21.2351563,18.3391813 L20.34375,18.3391813 C21.853125,16.4124756 22.75,13.9890838 22.75,11.3528265 C22.75,5.08148148 17.6585938,0 11.375,0 C5.09140625,0 0,5.08148148 0,11.3528265 C0,17.6241715 5.09140625,22.705653 11.375,22.705653 C14.0164063,22.705653 16.4445313,21.8105263 18.375,20.3040936 L18.375,21.1937622 C18.375,21.5430799 18.5117188,21.8760234 18.7578125,22.1216374 L24.2101563,27.5633528 C24.7242188,28.0764133 25.5554688,28.0764133 26.0640625,27.5633528 L27.6117188,26.0187135 C28.1257812,25.505653 28.1257812,24.6760234 27.6171875,24.162963 Z M11.375,18.3391813 C7.50859375,18.3391813 4.375,15.217154 4.375,11.3528265 C4.375,7.49395712 7.503125,4.36647173 11.375,4.36647173 C15.2414062,4.36647173 18.375,7.48849903 18.375,11.3528265 C18.375,15.2116959 15.246875,18.3391813 11.375,18.3391813 Z"/>
</svg>
