<?xml version="1.0" encoding="UTF-8"?>
<svg width="32px" height="32px" viewBox="0 0 32 32" version="1.1" xmlns="http://www.w3.org/2000/svg" xmlns:xlink="http://www.w3.org/1999/xlink">
    <!-- Generator: Sketch 54.1 (76490) - https://sketchapp.com -->
    <title>VegDish</title>
    <desc>Created with Sketch.</desc>
    <g id="VegDish" stroke="none" stroke-width="1" fill="none" fill-rule="evenodd">
        <path d="M6.88456832,15.4514857 C6.88456832,16.7312788 7.52108684,17.9376926 8.54664239,18.6719685 C8.63379054,22.7966582 10.1831979,25.5319685 12.9695313,28.8345202 C10.624235,27.7043823 8.98430906,26.3999685 7.62749424,23.8432788 C6.61445721,23.7404513 5.66642017,23.1297616 5.14016091,22.2294168 C4.76364239,21.5839685 4.64664239,20.870934 4.80119795,20.2221064 C4.33849424,19.8320375 3.94127202,19.3574857 3.64130906,18.8336926 C2.98793869,17.6934168 2.82471647,16.4179685 3.19353128,15.3356237 C3.42560536,14.6534857 3.85845721,14.0944513 4.43671647,13.7174168 C4.35630906,13.5846582 4.28264239,13.4494857 4.21523498,13.3133478 C3.59942017,12.0654168 3.46942017,10.7030719 3.85893869,9.57389954 C4.09053128,8.90141678 4.48679054,8.36507195 5.01690165,8.00010643 C4.62353128,6.86176161 4.62401276,5.66452023 5.03086461,4.73424436 C5.33756832,4.03183057 5.8450498,3.53845126 6.49842017,3.30769264 C7.10219795,3.09479609 7.79071647,3.14548574 8.4527535,3.45058919 C8.82060536,2.67383057 9.44653128,2.15920988 10.2019757,2.03610643 C11.247272,1.8661754 12.3811609,2.54976161 13.0995313,3.71562367 C11.7017905,4.35431333 10.7099387,5.68865816 10.5409387,7.23927885 C8.64582758,7.91948574 7.33860536,9.73127885 7.33860536,11.811003 C7.33860536,12.2932788 7.4127535,12.7798995 7.55623498,13.2443133 C7.11953128,13.8916926 6.88456832,14.6563823 6.88456832,15.4514857 Z M28.3249387,11.6801754 C28.2878646,13.4654168 27.1544572,15.0884513 25.4384572,15.8140375 C25.1900128,15.9192788 24.937235,16.0008651 24.6815683,16.0583133 C24.7383831,16.1138306 24.7937535,16.1717616 24.846235,16.2330719 C25.7514202,17.2898306 25.6093831,18.8452788 25.6026424,18.910934 L25.5530498,19.4091409 L25.0580868,19.3415547 C25.053272,19.3405892 24.5655313,19.274934 23.8553461,19.274934 C22.4763831,19.274934 19.983272,19.5254857 18.7863091,21.2030719 C17.8628276,22.4968651 17.8358646,24.4510719 18.7063831,27.0121064 C18.9143831,27.6227961 18.8286794,28.2387961 18.4661239,28.7466582 C18.2489757,29.0507961 17.9446794,29.2979685 17.591272,29.4765892 L17.3620868,29.0334168 C16.3119757,26.5283823 15.6783461,24.3216926 15.3413091,22.3718306 C15.3398646,22.3602444 15.3384202,22.3491409 15.3360128,22.3380375 C15.0856424,20.8752788 15.004272,19.5607271 15.0514572,18.3832788 C15.7255313,17.230934 17.7068276,17.1845892 17.7270498,17.1841064 C17.9923461,17.1797616 18.2051609,16.9610719 18.2013091,16.6945892 C18.1974572,16.4300375 17.9831979,16.2185892 17.7203091,16.2185892 C17.7183831,16.2185892 17.7164572,16.2185892 17.7145313,16.2185892 C17.6360498,16.2195547 16.2628646,16.2494857 15.174235,16.9340375 C15.3071239,15.9781754 15.5281239,15.1318995 15.8020868,14.3792788 C15.8290498,14.3464513 15.8536054,14.3107271 15.8719017,14.2696926 C15.8998276,14.2078995 15.9128276,14.1432099 15.9137905,14.0794857 C16.2585313,13.2085892 16.6745313,12.4776926 17.1069017,11.8679685 C19.2658646,11.4175547 20.8947165,12.0943823 20.9308276,12.1098306 C20.9934202,12.1378306 21.0589017,12.1503823 21.1229387,12.1503823 C21.3083091,12.1503823 21.4850128,12.0422444 21.5644572,11.8616926 C21.6708646,11.6178995 21.5601239,11.3330719 21.3169757,11.2254168 C21.2500498,11.1964513 19.9216424,10.6277616 18.0116054,10.7672788 C18.944235,9.79162367 19.7637165,9.34941678 19.8855313,9.28714092 C20.5856054,8.95114092 21.6073091,9.38514092 21.9429017,9.58162367 C22.0194572,9.62700298 22.103235,9.64824436 22.1865313,9.64824436 C22.3507165,9.64824436 22.5115313,9.56327885 22.6015683,9.41072712 C22.7363831,9.18141678 22.6607905,8.88548574 22.4311239,8.74983057 C22.376235,8.71700298 21.2938646,8.08941678 20.1850128,8.21541678 C20.2793831,7.82389954 20.490272,7.46810643 20.5976424,7.32520988 C20.7584572,7.11376161 20.7180128,6.81107195 20.5071239,6.64934781 C20.2971979,6.48810643 19.9938646,6.52769264 19.8325683,6.73962367 C19.8027165,6.77872712 19.1705313,7.61872712 19.1719757,8.58569264 C18.4714202,9.01583057 16.6615313,10.3197616 15.395235,12.9401754 C15.3268646,13.0816237 15.2609017,13.2327271 15.1954202,13.3847961 C13.8819387,12.4839685 14.0981239,10.8826582 14.1101609,10.804934 C14.1510868,10.5423133 13.9724572,10.2956237 13.7100498,10.2536237 C13.4481239,10.2092099 13.2006424,10.3912099 13.1587535,10.6543133 C13.0191239,11.5305202 13.2194202,13.3360375 14.8415313,14.3058995 C14.484272,15.3602444 14.2136794,16.6183133 14.1299017,18.1047271 C14.1178646,18.1578306 14.1154572,18.2094857 14.121235,18.2621064 C14.0726054,19.3019685 14.121235,20.4557616 14.2887905,21.7191409 C13.6758646,21.3821754 13.3956424,20.8878306 13.3778276,20.8545202 C13.2521609,20.6203823 12.9618276,20.5305892 12.7283091,20.6546582 C12.4933461,20.7787271 12.4023461,21.0712788 12.5265683,21.3068651 C12.5520868,21.3561064 13.1293831,22.4258995 14.4645313,22.8381754 C14.8189017,24.7856237 15.4539757,26.9763823 16.4886794,29.4437616 L16.6533461,29.7643133 C16.5257535,29.7807271 16.396235,29.7918306 16.2647905,29.7918306 C15.5054942,29.7918306 14.8290128,29.5012099 14.3590868,28.9725892 L14.3273091,28.9363823 L14.1525313,28.737003 C11.0517905,25.1578306 9.46242017,22.5016926 9.50671647,18.1264513 C8.50186461,17.6282444 7.84801276,16.5932099 7.84801276,15.4519685 C7.84801276,14.6882444 8.13593869,13.9645892 8.64871647,13.4147271 C8.42049424,12.9112099 8.30156832,12.3637616 8.30156832,11.8114857 C8.30156832,9.90120988 9.66416091,8.31148574 11.4889757,7.98224436 C11.482235,7.89245126 11.4783831,7.80410643 11.4783831,7.71576161 C11.4783831,6.07052023 12.6584942,4.66424436 14.2324572,4.34562367 C14.4317905,3.0199685 15.5757905,2.00038229 16.9523461,2.00038229 C17.4867905,2.00038229 18.008235,2.16065816 18.4560128,2.45755471 C18.9581979,2.10369264 19.5658276,1.9419685 20.2086054,2.01872712 C21.1913091,2.13555471 22.0420868,2.86403747 22.3247165,3.83148574 C22.3704572,3.98886505 22.4007905,4.1481754 22.415235,4.3079685 C24.0176054,4.52038229 25.3070128,5.77410643 25.5559387,7.37831333 C27.2623091,8.10920988 28.3634572,9.80031333 28.3249387,11.6801754 Z" id="Combined-Shape" fill="#63CAB9" fill-rule="nonzero"></path>
    </g>
</svg>